<?xml version="1.0" encoding="iso-8859-1"?>
<!-- Uploaded to: SVG Repo, www.svgrepo.com, Generator: SVG Repo Mixer Tools -->
<svg height="800px" width="800px" version="1.1" id="Layer_1" xmlns="http://www.w3.org/2000/svg" xmlns:xlink="http://www.w3.org/1999/xlink" 
	 viewBox="0 0 511.988 511.988" xml:space="preserve">
<path style="fill:#E6E9ED;" d="M511.538,394.851c0-52.825-42.983-95.824-95.825-95.824c-52.841,0-95.84,42.983-95.84,95.824
	c0,27.483,11.594,53.232,31.953,71.435v35.046c0,5.891,4.765,10.656,10.64,10.656h106.479c2.828,0,5.531-1.125,7.531-3.125
	s3.125-4.703,3.125-7.531v-35.046C499.96,448.084,511.538,422.335,511.538,394.851z"/>
<path style="fill:#967ADC;" d="M3.572,507.973c-4.172-4.156-4.172-10.89,0-15.046l105.401-105.419
	c4.156-4.155,10.906-4.155,15.062,0c4.156,4.172,4.156,10.906,0,15.062L18.618,507.973C14.462,512.144,7.727,512.144,3.572,507.973z
	"/>
<path style="fill:#E6E9ED;" d="M398.604,183.829c0-2.828-1.125-5.546-3.125-7.531l-60.231-60.232
	c-4.156-4.172-10.891-4.172-15.047,0L108.973,327.277c-2,1.999-3.125,4.702-3.125,7.53v60.231c0,2.938,1.203,5.609,3.125,7.53
	c1.922,1.922,4.594,3.125,7.531,3.125h60.232c2.828,0,5.531-1.125,7.531-3.125l211.21-211.225
	C397.479,189.36,398.604,186.641,398.604,183.829z"/>
<path style="fill:#AC92EB;" d="M105.848,395.039c0,2.938,1.203,5.609,3.125,7.53c1.922,1.922,4.594,3.125,7.531,3.125h60.232
	c2.828,0,5.531-1.125,7.531-3.125l127.997-127.994H161.675l-52.701,52.702c-2,1.999-3.125,4.702-3.125,7.53L105.848,395.039
	L105.848,395.039z"/>
<g>
	<path style="fill:#434A54;" d="M394.417,394.851c0,5.891-4.766,10.655-10.656,10.655c-5.875,0-10.64-4.765-10.64-10.655
		c0-5.875,4.765-10.64,10.64-10.64C389.651,384.212,394.417,388.976,394.417,394.851z"/>
	<path style="fill:#434A54;" d="M458.306,394.851c0,5.891-4.766,10.655-10.656,10.655c-5.875,0-10.641-4.765-10.641-10.655
		c0-5.875,4.766-10.64,10.641-10.64C453.54,384.212,458.306,388.976,458.306,394.851z"/>
</g>
<path style="fill:#E6E9ED;" d="M496.491,55.834c0-2.828-1.125-5.547-3.125-7.531l-30.123-30.124c-4.156-4.156-10.891-4.156-15.047,0
	L335.247,131.112c-2,2-3.109,4.703-3.109,7.531s1.109,5.531,3.109,7.531l30.123,30.124c4.156,4.156,10.905,4.156,15.062,0
	L493.366,63.349C495.366,61.365,496.491,58.646,496.491,55.834z"/>
<path style="fill:#CCD1D9;" d="M312.671,123.597c-4.172-4.172-4.172-10.906,0-15.062c4.155-4.156,10.89-4.156,15.046,0
	l75.294,75.279c4.156,4.172,4.156,10.906,0,15.062c-4.156,4.156-10.891,4.156-15.047,0L312.671,123.597z"/>
<g>
	<path style="fill:#434A54;" d="M267.078,319.746l-15.046-15.047c-4.156-4.172-10.906-4.156-15.062,0s-4.156,10.891,0,15.047
		l15.062,15.062L267.078,319.746z"/>
	<path style="fill:#434A54;" d="M221.907,364.932l-15.062-15.062c-4.156-4.155-10.89-4.155-15.046,0
		c-4.171,4.156-4.171,10.906,0,15.062l15.046,15.046L221.907,364.932z"/>
	<path style="fill:#434A54;" d="M312.28,274.544l-15.046-15.046c-4.172-4.172-10.906-4.156-15.062,0
		c-4.156,4.156-4.156,10.891,0,15.046l15.062,15.062L312.28,274.544z"/>
	<path style="fill:#434A54;" d="M357.434,229.405l-15.062-15.062c-4.156-4.156-10.891-4.156-15.062,0
		c-4.156,4.156-4.156,10.906,0,15.062l15.062,15.062L357.434,229.405z"/>
</g>
<g>
	<path style="fill:#CCD1D9;" d="M394.417,480.036c-5.891,0-10.656,4.766-10.656,10.656v21.296h21.297v-21.296
		C405.057,484.802,400.292,480.036,394.417,480.036z"/>
	<path style="fill:#CCD1D9;" d="M437.009,478.708c-5.891,0-10.656,4.766-10.656,10.656v21.296c0,0.438,0.047,0.891,0.094,1.328
		h21.109c0.062-0.438,0.094-0.891,0.094-1.328v-21.296C447.648,483.473,442.884,478.708,437.009,478.708z"/>
	<path style="fill:#CCD1D9;" d="M433.134,18.179c-4.156-4.156-4.156-10.89,0-15.062c4.156-4.156,10.891-4.156,15.062,0
		l60.232,60.232c4.156,4.172,4.156,10.906,0,15.062c-4.156,4.156-10.906,4.156-15.062,0L433.134,18.179z"/>
</g>
</svg>