<?xml version="1.0" encoding="utf-8"?>
<!-- Uploaded to: SVG Repo, www.svgrepo.com, Generator: SVG Repo Mixer Tools -->
<svg width="800px" height="800px" viewBox="0 0 1024 1024" class="icon"  version="1.1" xmlns="http://www.w3.org/2000/svg"><path d="M0 512v448h992a32 32 0 0 0 32-32V512H0zM1024 512L726.24 82.208A37.152 37.152 0 0 0 672 72L0 512h1024z" fill="#EACA44" /><path d="M1024 512L726.24 82.208A37.152 37.152 0 0 0 672 72L0 512h1024z" fill="#FFFFFF" /><path d="M512 544m-96 0a96 96 0 1 0 192 0 96 96 0 1 0-192 0Z" fill="" /><path d="M640 256m-32 0a32 32 0 1 0 64 0 32 32 0 1 0-64 0Z" fill="" /><path d="M224 512m-32 0a32 32 0 1 0 64 0 32 32 0 1 0-64 0Z" fill="" /><path d="M320 800m-32 0a32 32 0 1 0 64 0 32 32 0 1 0-64 0Z" fill="" /><path d="M800 672m-32 0a32 32 0 1 0 64 0 32 32 0 1 0-64 0Z" fill="" /><path d="M832 352a64 64 0 0 0 64 64c18.656 0 35.328-8.128 47.04-20.864l-70.944-102.4A63.904 63.904 0 0 0 832 352zM0 640v128a64 64 0 0 0 0-128zM960 800c0 41.728 26.816 76.864 64 90.112v-180.256A95.84 95.84 0 0 0 960 800zM640 864a64 64 0 0 0-64 64c0 11.712 3.36 22.56 8.864 32h110.24c5.536-9.44 8.896-20.288 8.896-32a64 64 0 0 0-64-64z" fill="" /><path d="M608 544a96 96 0 1 0-192 0c0 5.472 0.704 10.784 1.632 16 7.616-45.376 46.816-80 94.368-80s86.752 34.624 94.368 80c0.928-5.216 1.632-10.528 1.632-16zM640 864a64 64 0 0 0-64 64c0 5.568 0.928 10.848 2.24 16 7.168-27.552 31.968-48 61.76-48s54.592 20.448 61.76 48c1.312-5.152 2.24-10.432 2.24-16a64 64 0 0 0-64-64zM224 480a32 32 0 0 0-32 32c0 5.984 2.048 11.232 4.896 16 5.568-9.408 15.392-16 27.104-16s21.536 6.592 27.104 16A30.88 30.88 0 0 0 256 512a32 32 0 0 0-32-32zM640 256c11.712 0 21.536 6.592 27.104 16A30.88 30.88 0 0 0 672 256a32 32 0 1 0-64 0c0 5.984 2.048 11.232 4.896 16A31.52 31.52 0 0 1 640 256zM800 640a32 32 0 0 0-32 32c0 5.984 2.048 11.232 4.896 16 5.568-9.408 15.392-16 27.104-16s21.536 6.592 27.104 16A30.88 30.88 0 0 0 832 672a32 32 0 0 0-32-32zM320 768a32 32 0 0 0-32 32c0 5.984 2.048 11.232 4.896 16 5.568-9.408 15.392-16 27.104-16s21.536 6.592 27.104 16A30.88 30.88 0 0 0 352 800a32 32 0 0 0-32-32zM960 800c0 5.472 0.704 10.784 1.632 16A95.936 95.936 0 0 1 1024 741.632v-31.744A95.68 95.68 0 0 0 960 800zM832 352c0 5.568 0.928 10.848 2.24 16a63.808 63.808 0 0 1 56.992-47.584l-19.168-27.68A63.904 63.904 0 0 0 832 352zM0 640v32c29.792 0 54.592 20.448 61.76 48 1.312-5.152 2.24-10.432 2.24-16a64 64 0 0 0-64-64z" fill="" /><path d="M602.112 512c3.584 10.048 5.888 20.704 5.888 32h416v-32H602.112zM192 512H0v32h224a32 32 0 0 1-32-32zM256 512a32 32 0 0 1-32 32h192c0-11.296 2.304-21.952 5.888-32H256z" fill="" /></svg>